<svg version="1.1" xmlns="http://www.w3.org/2000/svg" width="40" viewBox="0 0 55.959029281139465 25.297570121288288">
  <!-- svg-source:excalidraw -->
  <defs>
    <style>
      @font-face {
        font-family: "Virgil";
        src: url("https://excalidraw.com/FG_Virgil.woff2");
      }
      @font-face {
        font-family: "Cascadia";
        src: url("https://excalidraw.com/Cascadia.woff2");
      }
    </style>
  </defs>
  <g><g transform="translate(11.232529255375312 16.317256340757012) rotate(0 16.74698538519442 -3.6684712801128683)"><path d="M-1.232529255375266 -1.0196862194687129 C4.937315463398894 -2.5119329386701184, 28.901215930158894 -5.4725019667297605, 34.72650002576411 -6.317256340757012 M3.2938592210412025 -4.041541120111942 C9.544776258369286 -3.8785655894875526, 29.04341897318761 -3.0294119277596474, 33.96859107643366 -2.8601494708657267" stroke="#fff" stroke-width="4" fill="none"></path></g><g transform="translate(11.232529255375312 16.317256340757012) rotate(0 16.74698538519442 -3.6684712801128683)"><path d="M17.27919233855374 5.273435442165292 C21.38421370454393 3.1560327086603275, 25.032254155214858 -2.3718609289097325, 36.20803785966381 -0.4047625086327389 M17.83550425946212 2.207950165153366 C23.66851367754093 1.7578403233271844, 28.07761039649589 -2.4346886547732423, 33.23276275678079 -1.6424267451203696" stroke="#fff" stroke-width="4" fill="none"></path></g><g transform="translate(11.232529255375312 16.317256340757012) rotate(0 16.74698538519442 -3.6684712801128683)"><path d="M17.716039523130142 -5.853361477176287 C21.935294153786597 -5.5476046755527015, 25.488048377712214 -8.648492871314788, 36.20803785966382 -0.404762508632738 M18.272351444038517 -8.918846754188216 C24.102838555187887 -5.632443981745235, 28.365490292503583 -6.094919000274344, 33.23276275678079 -1.6424267451203691" stroke="#fff" stroke-width="4" fill="none"></path></g></g></svg>